<?xml version="1.0"?>
<svg version="1.1" xmlns="http://www.w3.org/2000/svg" width="140" height="100" style=""><path fill="#1698f5" d="M17.35302734375,35.84326171875q0-2.7001953125,0.92578125-3.6259765625t2.58447265625-0.92578125q0.462890625,0,0.983642578125,0.0771484375t0.983642578125,0.2314453125q2.58447265625-0.50146484375,4.89892578125-0.50146484375q3.74169921875,0,6.7890625,1.3115234375q4.89892578125,2.0830078125,8.1005859375,6.171875t4.7060546875,9.60498046875t1.50439453125,11.30224609375q0,3.240234375-0.443603515625,6.75048828125t-1.716552734375,6.51904296875q-1.11865234375,2.7001953125-3.0859375,5.651123046875t-4.455322265625,5.59326171875t-5.36181640625,4.62890625t-5.805419921875,2.680908203125l0,0.30859375q0,0.771484375-0.405029296875,1.253662109375t-0.983642578125,0.73291015625t-1.330810546875,0.327880859375t-1.407958984375,0.0771484375q-0.3857421875,0-1.099365234375-0.0771484375t-1.388671875-0.289306640625t-1.137939453125-0.559326171875t-0.462890625-0.96435546875q0-7.0205078125-0.366455078125-14.060302734375t-0.829345703125-14.07958984375t-0.829345703125-14.060302734375t-0.366455078125-14.07958984375z M24.6435546875,33.8759765625q0.3857421875,3.703125,0.50146484375,7.386962890625t0.34716796875,7.386962890625q0.6171875,9.56640625,1.42724609375,19.036376953125t0.96435546875,19.036376953125q3.703125-2.43017578125,6.345458984375-5.5546875t4.339599609375-6.7890625t2.488037109375-7.695556640625t0.790771484375-8.312744140625q0-3.0859375-0.5400390625-6.7890625t-1.8515625-7.13623046875t-3.529541015625-6.21044921875t-5.535400390625-3.97314453125q-0.6943359375-0.2314453125-1.677978515625-0.3857421875t-3.143798828125-0.154296875q-0.2314453125,0-0.462890625,0.0771484375t-0.462890625,0.0771484375z M56.763149414062,69.6728515625l0-6.0947265625q0-6.326171875,0.212158203125-12.555908203125t0.366455078125-12.555908203125q0-1.19580078125-0.0771484375-2.66162109375q-0.03857421875-0.42431640625-0.03857421875-0.81005859375q0-0.96435546875,0.154296875-1.89013671875q0.19287109375-1.234375,0.945068359375-2.12158203125t2.488037109375-0.88720703125q1.42724609375,0,2.179443359375,0.30859375t1.060791015625,0.906494140625t0.34716796875,1.50439453125t0.03857421875,2.102294921875q0,6.4033203125-0.154296875,12.84521484375q-0.11572265625,4.28173828125-0.11572265625,8.5634765625q0,2.16015625,0.03857421875,4.3203125q0.0771484375,6.4033203125,0.597900390625,12.806640625t1.755126953125,12.65234375q3.857421875-0.154296875,7.71484375-0.3857421875t7.71484375-0.2314453125q0.3857421875,0,1.099365234375,0.0771484375t1.42724609375,0.27001953125t1.215087890625,0.50146484375t0.50146484375,0.88720703125q0,0.3857421875-0.34716796875,0.65576171875t-0.65576171875,0.42431640625l-0.0771484375,0q-0.6171875,0.30859375-2.449462890625,0.597900390625t-4.166015625,0.443603515625t-4.89892578125,0.27001953125t-4.82177734375,0.19287109375t-3.915283203125,0.11572265625t-2.04443359375,0.03857421875l-0.34716796875,0q-0.92578125,0-2.0830078125-0.30859375q-1.388671875-0.3857421875-1.73583984375-1.50439453125q-0.6943359375-2.8544921875-1.099365234375-5.921142578125t-0.6171875-6.229736328125t-0.212158203125-6.326171875z M91.852958984375,83.01953125q0.2314453125-6.2490234375,0.405029296875-12.806640625t0.327880859375-12.941650390625t0.2314453125-12.401611328125t0.0771484375-11.22509765625q0.0771484375-1.04150390625,1.81298828125-1.65869140625t4.146728515625-0.906494140625t5.091796875-0.366455078125t4.763916015625-0.0771484375q0.462890625,0,1.9287109375-0.03857421875l0.73291015625,0q1.11865234375,0,2.35302734375,0.0771484375q1.6201171875,0.11572265625,2.835205078125,0.50146484375t1.215087890625,1.11865234375q0,0.5400390625-0.42431640625,0.867919921875t-0.983642578125,0.482177734375t-1.1572265625,0.19287109375t-0.829345703125,0.03857421875q-3.6259765625,0-7.1748046875-0.11572265625q-0.96435546875-0.03857421875-1.96728515625-0.03857421875q-2.623046875,0-5.3232421875,0.2314453125q0.154296875,0.462890625,0.250732421875,2.796630859375t0.096435546875,5.265380859375t-0.03857421875,5.728271484375t0,4.301025390625l0,10.029296875q1.19580078125-0.0771484375,2.35302734375-0.0771484375l2.314453125,0l1.54296875-0.0771484375q0.771484375-0.03857421875,1.6201171875-0.03857421875q0.88720703125,0,1.81298828125,0.03857421875q1.8515625,0.0771484375,3.375244140625,0.443603515625t1.523681640625,1.292236328125q0,0.6943359375-0.57861328125,1.022216796875t-1.292236328125,0.482177734375t-1.35009765625,0.154296875l-0.713623046875,0q-2.19873046875,0-4.571044921875-0.154296875t-4.416748046875-0.154296875q-0.3857421875,0.154296875-0.829345703125,0.11572265625t-0.790771484375-0.03857421875q0,5.7861328125-0.11572265625,11.514404296875t-0.27001953125,11.398681640625q0,1.11865234375-1.407958984375,1.4658203125t-2.680908203125,0.34716796875q-1.42724609375,0-2.256591796875-0.34716796875t-1.176513671875-1.137939453125t-0.42431640625-2.102294921875q-0.03857421875-0.73291015625-0.0771484375-1.6201171875q0-0.73291015625,0.03857421875-1.58154296875z"/><path fill="#" d=""/></svg>
